<svg xmlns="http://www.w3.org/2000/svg" viewBox="0 0 256 71">
	<rect fill="#BF2134" width="256" height="71"/>
	<path fill="#FFFFFF" d="M207,59.2h-15.7V11.8h15.8L223,28v9.2l-18.7-19.1h-6.6v34.7h9.3V59.2z M238.7,59.2h-15.8L207,42.9v-9.2 l18.7,19.2h6.6V18.2H223v-6.4h15.7V59.2z"/>
	<path fill="#FFFFFF" d="M158.1,27.4V45h-2.7v3.1h10.7V45h-2.9v-7.4h1.7l6,7.4h-2.3v3.1h10.9V45h-2.2l-8.7-9.9l7.3-7.7h3.2v-3.1h-10.3 v3.1h2.6l-6.1,7.1h-2v-7.1h2.6v-3.1h-11.5v3.1L158.1,27.4L158.1,27.4z M141,22.3l8.5-1.5l-1.1-3.8l-8.1,2.9L141,22.3z M149.3,27.4 v-3.1h-11.9v3.1h3.7V45h-2.7v3.1h12V45h-4.2V27.4H149.3z M133.1,27.4v-3.1h-11.7v3.1h5.4v13.9h-0.3l-13-17h-8.3v3.1h4L109,45h-2.8 v3.1h12V45h-5.7l-0.2-14h0.4l12.9,17.3h4.4l0.3-20.7h2.8V27.4z M101,27.4v-3.1H89.3v3.1h5.4v13.9h-0.3l-13-17h-8.3v3.1h4L76.8,45H74 v3.1h12V45h-5.7l-0.2-14h0.4l12.9,17.3h4.4l0.3-20.7h2.9V27.4z M47.7,48.1h20.9v-7.7h-4.2L64.1,45h-8.7v-7.3h9.9v-3.2h-9.9v-7.1h7.4 l0.3,4.5h4.2v-7.5H46.6v3.1h3.7V45h-2.6V48.1z M27.8,27.4c6.3,0,9.2,2.1,9.2,9.2c0,5.1-1.8,8.4-7.8,8.4h-2.9V27.4H27.8z M17.4,24.3 v3.1h3.7V45h-2.7v3.1h10.4c9.9,0,13.6-5.3,13.6-12s-3.2-11.8-13.5-11.8H17.4z"/>
</svg>
